<?xml version="1.0" encoding="UTF-8" standalone="no"?>
<!-- Created with Inkscape (http://www.inkscape.org/) -->

<svg
   xmlns:dc="http://purl.org/dc/elements/1.1/"
   xmlns:cc="http://creativecommons.org/ns#"
   xmlns:rdf="http://www.w3.org/1999/02/22-rdf-syntax-ns#"
   xmlns:svg="http://www.w3.org/2000/svg"
   xmlns="http://www.w3.org/2000/svg"
   version="1.1"
   width="100%"
   height="100%"
   viewBox="0 0 720 720"
   id="svg3546"
   xml:space="preserve"><metadata
     id="metadata286"><rdf:RDF><cc:Work
         rdf:about=""><dc:format>image/svg+xml</dc:format><dc:type
           rdf:resource="http://purl.org/dc/dcmitype/StillImage" /><dc:title></dc:title></cc:Work></rdf:RDF></metadata><defs
     id="defs4111" /><g
     id="Layer_1"
     style="display:none"><path
       d="m 363.1,720.5 h -7.2 C 159.1,720.5 -0.5,560.9 -0.5,364.1 v -7.2 C -0.5,160.1 159.1,0.5 355.9,0.5 h 7.2 c 196.8,0 356.4,159.6 356.4,356.4 v 7.2 c 0,196.8 -159.6,356.4 -356.4,356.4 z"
       id="path3551"
       style="fill:#03a9f4;display:inline" /><path
       d="m 355.9,721 h 7.2 C 559.9,721 719,560.9 719,364.1 v -5.4 C 632,298.6 502.5,260.6 358.5,260.6 215.1,260.6 87,298.4 -1,358 v 6.1 C -1,560.9 159.1,721 355.9,721 z"
       id="path3553"
       style="fill:#0277bd;display:inline" /><g
       id="g3555"
       style="display:inline"><g
         id="g3557"><ellipse
           cx="466.20001"
           cy="176.7"
           rx="37.400002"
           ry="27.4"
           transform="matrix(0.8006,0.5991,-0.5991,0.8006,198.8172,-244.111)"
           id="ellipse3559"
           style="fill:#212121" /><ellipse
           cx="252.3"
           cy="176.7"
           rx="37.400002"
           ry="27.4"
           transform="matrix(-0.8006,0.5991,-0.5991,-0.8006,560.1591,167.0369)"
           id="ellipse3561"
           style="fill:#212121" /><path
           d="m 558.1,454.2 c 0,87.4 -87.9,158.2 -196.3,158.2 -108.4,0 -196.3,-70.8 -196.3,-158.2 0,-87.4 87.9,-320.8 196.3,-320.8 108.4,0 196.3,233.4 196.3,320.8 z"
           id="path3563"
           style="fill:#eeeeee" /><path
           d="m 361.7,422.5 c 73.7,0 139.7,33 184.1,85 7.9,-17.2 12.3,-35.7 12.3,-55.1 0,-34.6 -13.8,-92.1 -37.2,-148.9 -42.5,37.2 -98.2,59.8 -159.2,59.8 -61,0 -116.7,-22.6 -159.2,-59.8 -23.4,56.8 -37.2,114.3 -37.2,148.9 0,19.4 4.3,38 12.3,55.1 44.3,-52 110.3,-85 184.1,-85 z"
           id="path3565"
           style="fill:#212121" /><ellipse
           cx="235.39999"
           cy="579.79999"
           rx="49.799999"
           ry="36.700001"
           transform="matrix(0.9148,0.4039,-0.4039,0.9148,254.2517,-45.6899)"
           id="ellipse3567"
           style="fill:#212121" /><ellipse
           cx="479.39999"
           cy="579.79999"
           rx="49.799999"
           ry="36.700001"
           transform="matrix(-0.9148,0.4039,-0.4039,-0.9148,1152.2175,916.6229)"
           id="ellipse3569"
           style="fill:#212121" /><ellipse
           cx="304.70001"
           cy="244.8"
           rx="44.599998"
           ry="24.799999"
           transform="matrix(0.859,-0.512,0.512,0.859,-82.3649,190.5348)"
           id="ellipse3571"
           style="fill:#212121" /><ellipse
           cx="414.29999"
           cy="244.8"
           rx="44.599998"
           ry="24.799999"
           transform="matrix(-0.859,-0.512,0.512,-0.859,644.8704,667.1891)"
           id="ellipse3573"
           style="fill:#212121" /><ellipse
           cx="315.70001"
           cy="238.2"
           rx="8.8999996"
           ry="14.6"
           id="ellipse3575"
           style="fill:#eeeeee" /><ellipse
           cx="404.10001"
           cy="238.2"
           rx="8.8999996"
           ry="14.6"
           id="ellipse3577"
           style="fill:#eeeeee" /><path
           d="m 383.9,274.1 c 0,3 -10.1,10.1 -22.5,10.1 -12.4,0 -22.5,-7.1 -22.5,-10.1 0,-3 10.1,-5.4 22.5,-5.4 12.4,0 22.5,2.4 22.5,5.4 z"
           id="path3579"
           style="fill:#212121" /></g><path
         d="m 168.7,419.4 30.4,-107.5 -118.3,120.9 0,0 c -4.2,3.4 -6.9,8.6 -6.9,14.4 0,10.2 8.7,18.5 18.9,18.5 3.2,0 5.3,-0.8 9.3,-2.3 v 0 l -0.4,0 c 0.7,-0.4 1.2,-0.9 1.9,-1.3 l 65.1,-42.7 z"
         id="path3581"
         style="fill:#212121" /><path
         d="m 554.9,419.4 -30.4,-107.5 118.3,120.9 0,0 c 4.2,3.4 6.9,8.6 6.9,14.4 0,10.2 -8.5,18.5 -18.7,18.5 -3.2,0 -6.1,-0.8 -9.1,-2.3 v 0 l 0.2,0 c -0.7,-0.4 -1.3,-0.9 -2,-1.3 l -65.2,-42.7 z"
         id="path3583"
         style="fill:#212121" /></g><path
       d="m -4560.1,-2947 h -16.8 c -6.6,8 -16.7,13.5 -28.1,13.5 -11.4,0 -21.5,-5.5 -28.1,-13.5 h -15.8 c -6.6,8 -16.7,13.5 -28.1,13.5 -11.4,0 -21.5,-5.5 -28.1,-13.5 h -15.8 c -6.6,8 -16.7,13.5 -28.1,13.5 -11.4,0 -21.5,-5.5 -28.1,-13.5 h -14.8 c -6.6,8 -16.7,13.5 -28.1,13.5 -11.4,0 -21.5,-5.5 -28.1,-13.5 h -15.8 c -6.6,8 -16.7,13.5 -28.1,13.5 -11.4,0 -21.5,-5.5 -28.1,-13.5 h -16.8 c -6.6,8 -16.7,13.5 -28.1,13.5 -11.4,0 -21.5,-5.5 -28.1,-13.5 h -15.8 c -6.6,8 -16.7,13.5 -28.1,13.5 -11.4,0 -21.5,-5.5 -28.1,-13.5 h -15.8 c -6.6,8 -16.7,13.5 -28.1,13.5 -11.4,0 -21.5,-5.5 -28.1,-13.5 h -15.8 c -6.6,8 -16.7,13.5 -28.1,13.5 -11.4,0 -21.5,-5.5 -28.1,-13.5 h -14.8 c -1.9,2 -4.1,4 -7.1,5.9 v 14.3 c 9,6.6 14.5,17.1 14.5,28.9 0,11.8 -5.5,22.3 -14.5,28.9 v 14.2 c 9,6.6 14.5,17.1 14.5,28.9 0,11.8 -5.5,22.3 -14.5,28.9 v 14.2 c 9,6.6 14.5,17.1 14.5,28.9 0,11.8 -5.5,22.3 -14.5,28.9 v 13.3 c 9,6.6 14.5,17 14.5,28.9 0,11.8 -5.5,22.3 -14.5,28.9 v 14.2 c 9,6.6 14.5,17.1 14.5,28.9 0,11.8 -5.5,22.3 -14.5,28.9 v 16 c 9,6.6 13.5,16.7 13.5,28.1 0,11.4 -4.5,21.5 -13.5,28.1 v 15 c 9,6.6 14.5,17.1 14.5,28.9 0,11.8 -5.5,22.3 -14.5,28.9 v 15 c 9,6.6 13.5,16.7 13.5,28.1 0,11.4 -4.5,21.5 -13.5,28.1 v 15 c 9,6.6 14.5,17.1 14.5,28.9 0,11.8 -5.5,22.3 -14.5,28.9 v 14.3 c 3,1.8 5.2,3.9 7.1,6.9 h 14.8 c 6.6,-9 16.7,-13.5 28.1,-13.5 11.4,0 21.5,4.5 28.1,13.5 h 15.8 c 6.6,-9 16.7,-13.5 28.1,-13.5 11.4,0 21.5,4.5 28.1,13.5 h 15.8 c 6.6,-9 16.7,-13.5 28.1,-13.5 11.4,0 21.5,4.5 28.1,13.5 h 15.8 c 6.6,-9 16.7,-13.5 28.1,-13.5 11.4,0 21.5,4.5 28.1,13.5 h 16.8 c 6.6,-9 16.7,-13.5 28.1,-13.5 11.4,0 21.5,4.5 28.1,13.5 h 14.8 c 6.6,-9 16.7,-13.5 28.1,-13.5 11.4,0 21.5,4.5 28.1,13.5 h 15.8 c 6.6,-9 16.7,-13.5 28.1,-13.5 11.4,0 21.5,4.5 28.1,13.5 h 15.8 c 6.6,-9 16.7,-13.5 28.1,-13.5 11.4,0 21.5,4.5 28.1,13.5 h 15.8 c 6.6,-9 16.7,-13.5 28.1,-13.5 11.4,0 21.5,4.5 28.1,13.5 h 15.8 c 1.9,-3 4.1,-5 6.1,-6.9 v -14.2 c -8,-6.6 -14.5,-17.1 -14.5,-28.9 0,-11.8 6.5,-22.3 14.5,-28.9 v -14.2 c -8,-6.6 -14.5,-17.1 -14.5,-28.9 0,-11.8 6.5,-22.3 14.5,-28.9 v -15 c -8,-6.6 -13.5,-16.7 -13.5,-28.1 0,-11.4 5.5,-21.5 13.5,-28.1 v -15 c -8,-6.6 -14.5,-17.1 -14.5,-28.9 0,-11.8 6.5,-22.3 14.5,-28.9 v -14.2 c -8,-6.6 -14.5,-17.1 -14.5,-28.9 0,-11.8 6.5,-22.3 14.5,-28.9 v -15.2 c -8,-6.6 -14.5,-17.1 -14.5,-28.9 0,-11.8 6.5,-22.3 14.5,-28.9 v -14.2 c -8,-6.6 -14.5,-17.1 -14.5,-28.9 0,-11.8 6.5,-22.3 14.5,-28.9 v -13.3 c -8,-6.6 -14.5,-17 -14.5,-28.9 0,-11.8 6.5,-22.3 14.5,-28.9 v -14.2 c -8,-6.6 -14.5,-17.1 -14.5,-28.9 0,-11.8 6.5,-22.3 14.5,-28.9 v -15 c -2,-1.9 -3.4,-3.3 -5.1,-5.3 z"
       id="path3585"
       style="fill:#4fc3f7;display:inline" /><g
       id="g3587"
       style="display:inline"><rect
         width="144"
         height="192"
         x="-5181.5"
         y="-2896.5"
         id="rect3589"
         style="fill:#03a9f4;stroke:#0d181c;stroke-miterlimit:10" /><rect
         width="144"
         height="192"
         x="-5037.5"
         y="-2896.5"
         id="rect3591"
         style="fill:#03a9f4;stroke:#0d181c;stroke-miterlimit:10" /><rect
         width="144"
         height="192"
         x="-4893.5"
         y="-2896.5"
         id="rect3593"
         style="fill:#03a9f4;stroke:#0d181c;stroke-miterlimit:10" /><rect
         width="144"
         height="192"
         x="-4749.5"
         y="-2896.5"
         id="rect3595"
         style="fill:#03a9f4;stroke:#0d181c;stroke-miterlimit:10" /><rect
         width="144"
         height="192"
         x="-5181.5"
         y="-2704.5"
         id="rect3597"
         style="fill:#03a9f4;stroke:#0d181c;stroke-miterlimit:10" /><rect
         width="144"
         height="192"
         x="-5037.5"
         y="-2704.5"
         id="rect3599"
         style="fill:#03a9f4;stroke:#0d181c;stroke-miterlimit:10" /><rect
         width="144"
         height="192"
         x="-4893.5"
         y="-2704.5"
         id="rect3601"
         style="fill:#03a9f4;stroke:#0d181c;stroke-miterlimit:10" /><rect
         width="144"
         height="192"
         x="-4749.5"
         y="-2704.5"
         id="rect3603"
         style="fill:#03a9f4;stroke:#0d181c;stroke-miterlimit:10" /><rect
         width="144"
         height="192"
         x="-5181.5"
         y="-2512.5"
         id="rect3605"
         style="fill:#03a9f4;stroke:#0d181c;stroke-miterlimit:10" /><rect
         width="144"
         height="192"
         x="-5037.5"
         y="-2512.5"
         id="rect3607"
         style="fill:#03a9f4;stroke:#0d181c;stroke-miterlimit:10" /><rect
         width="144"
         height="192"
         x="-4893.5"
         y="-2512.5"
         id="rect3609"
         style="fill:#03a9f4;stroke:#0d181c;stroke-miterlimit:10" /><rect
         width="144"
         height="192"
         x="-4749.5"
         y="-2512.5"
         id="rect3611"
         style="fill:#03a9f4;stroke:#0d181c;stroke-miterlimit:10" /></g><path
       d="m -4569.5,-2394 c 0,11.8 6.5,22.3 14.5,28.9 v -57.8 c -8,6.6 -14.5,17.1 -14.5,28.9 z"
       id="path3613"
       style="fill:none;display:inline" /><path
       d="m -4568.5,-2466 c 0,11.4 5.5,21.5 13.5,28.1 v -56.2 c -8,6.6 -13.5,16.7 -13.5,28.1 z"
       id="path3615"
       style="fill:none;display:inline" /><path
       d="m -4749,-2285.5 c -11.4,0 -21.5,4.5 -28.1,13.5 h 56.2 c -6.6,-9 -16.7,-13.5 -28.1,-13.5 z"
       id="path3617"
       style="fill:none;display:inline" /><path
       d="m -4821,-2285.5 c -11.4,0 -21.5,4.5 -28.1,13.5 h 56.2 c -6.6,-9 -16.7,-13.5 -28.1,-13.5 z"
       id="path3619"
       style="fill:none;display:inline" /><path
       d="m -4561.1,-2272 h 6.1 v -6.9 c -2,1.9 -4.2,3.9 -6.1,6.9 z"
       id="path3621"
       style="fill:none;display:inline" /><path
       d="m -4569.5,-2322 c 0,11.8 6.5,22.3 14.5,28.9 v -57.8 c -8,6.6 -14.5,17.1 -14.5,28.9 z"
       id="path3623"
       style="fill:none;display:inline" /><path
       d="m -4677,-2285.5 c -11.4,0 -21.5,4.5 -28.1,13.5 h 56.2 c -6.6,-9 -16.7,-13.5 -28.1,-13.5 z"
       id="path3625"
       style="fill:none;display:inline" /><path
       d="m -4605,-2285.5 c -11.4,0 -21.5,4.5 -28.1,13.5 h 56.2 c -6.6,-9 -16.7,-13.5 -28.1,-13.5 z"
       id="path3627"
       style="fill:none;display:inline" /><polygon
       points="57,199 72,164 181.7,626 155.6,619 "
       id="polygon3629"
       style="fill:#7cb342;display:inline" /><polygon
       points="202,425.9 189,425 115.9,601 136.4,610 "
       id="polygon3631"
       style="fill:#7cb342;display:inline" /><polygon
       points="557,619 629,207 614,192.6 538,619 "
       id="polygon3633"
       style="fill:#7cb342;display:inline" /><polygon
       points="509.9,432 520,405.8 613,584 602,597 "
       id="polygon3635"
       style="fill:#7cb342;display:inline" /><polygon
       points="592,251.6 583.5,270 657,501.4 667,490.8 "
       id="polygon3637"
       style="fill:#7cb342;display:inline" /><polygon
       points="645,353 654,360 637.4,518 620.8,509 "
       id="polygon3639"
       style="fill:#7cb342;display:inline" /><polygon
       points="125,241 108,246.6 44,501.4 57,518 "
       id="polygon3641"
       style="fill:#7cb342;display:inline" /><polygon
       points="28,379.5 38,360 95,490.8 84.5,498 "
       id="polygon3643"
       style="fill:#7cb342;display:inline" /></g><g
     id="Layer_6"
     style="display:none"><rect
       width="720"
       height="720"
       x="0"
       y="0"
       id="rect3649"
       style="fill:#0288d1;display:inline" /><path
       d="m -1726.2,-632 h -7.7 c -210,0 -380.2,170.2 -380.2,380.2 v 7.7 c 0,210 170.2,380.2 380.2,380.2 h 7.7 c 210,0 380.2,-170.2 380.2,-380.2 v -7.7 c 0,-210 -170.2,-380.2 -380.2,-380.2 z"
       id="path3651"
       style="fill:#0288d1;display:inline" /><path
       d="m -1888,-240 c 0,0 -198.2,241.1 148,232 267,-7 213,-120 210,-145 -18,-40 -79,-87 -79,-87 0,0 -44.2,-30 -131.5,-31 -48.5,-7 -80.8,9.8 -147.5,31 z"
       id="path3653"
       style="fill:#eeeeee;display:inline" /><path
       d="m -1742,-82 c 144.9,-3.8 195.3,-38.8 210.5,-74.1 -19.6,-39.3 -77.5,-83.9 -77.5,-83.9 0,0 -44.2,-30 -131.5,-31 -48.5,-7 -80.8,9.8 -147.5,31 0,0 -36.3,44.1 -50.7,93.9 18.4,38.4 72.5,67.4 196.7,64.1 z"
       id="path3655"
       style="fill:#ffffff;display:inline" /><g
       id="g3657"
       style="display:inline"><path
         d="m -1947.7,-114.3 c 0,-6.7 27.7,-48.3 97.7,0 70,48.3 61,74.5 61,74.5 0,0 -21,26.9 19,50.9 10,34 -13.7,60.7 -41,64 -72.5,8.7 -154.8,-110.9 -136.7,-189.4 z"
         id="path3659"
         style="fill:#222222" /><path
         d="m -1770.5,43 c -26.3,3 -53.9,-10.8 -77.4,-33.5 -16.7,-32.9 -24.7,-69.5 -17.7,-99.9 0,-3.2 6.5,-14.7 21.2,-20.1 -1.8,-1.3 -3.6,-2.6 -5.5,-3.9 -25.7,-17.8 -45.7,-23.4 -60.7,-23 -0.1,0 -0.1,0 -0.2,0 -2.5,0.1 -4.8,0.3 -7,0.6 0,0 0,0 -0.1,0 -7.4,1.2 -13.3,3.9 -17.8,7.1 0,0 0,0 0,0 -1.3,0.9 -2.6,1.9 -3.7,2.9 0,0 0,0 0,0 -0.4,0.3 -0.7,0.7 -1.1,1 0,0 0,0 0,0 -0.7,0.7 -1.3,1.3 -1.9,2 0,0 0,0 -0.1,0.1 -0.3,0.3 -0.5,0.6 -0.8,0.9 0,0 -0.1,0.1 -0.1,0.1 -0.5,0.6 -1,1.3 -1.4,1.9 0,0 0,0.1 -0.1,0.1 -0.2,0.3 -0.3,0.5 -0.5,0.8 0,0.1 -0.1,0.1 -0.1,0.2 -0.2,0.3 -0.3,0.5 -0.5,0.8 0,0 0,0 0,0.1 -0.2,0.3 -0.3,0.5 -0.4,0.8 0,0 0,0.1 -0.1,0.1 -0.1,0.2 -0.2,0.4 -0.3,0.6 0,0.1 -0.1,0.1 -0.1,0.2 -0.1,0.2 -0.2,0.4 -0.2,0.5 0,0.1 0,0.1 -0.1,0.2 -0.1,0.2 -0.2,0.4 -0.2,0.6 0,0 0,0.1 0,0.1 -0.1,0.2 -0.1,0.3 -0.1,0.5 0,0.1 0,0.1 0,0.2 0,0.1 -0.1,0.2 -0.1,0.3 0,0 0,0.1 0,0.1 0,0.1 0,0.3 0,0.4 -18.2,78.4 64.1,198 136.6,189.2 0.9,-0.1 1.8,-0.3 2.7,-0.4 0.1,0 0.2,0 0.2,0 16.7,-3.2 31.6,-14.9 37.6,-31.6 z"
         id="path3661"
         style="fill:#2a2a2a" /><path
         d="m -1918.7,-130.3 c 0,-1.3 1,-3.8 3.1,-6.7 -22.4,2.6 -32.1,18.8 -32.1,22.7 -18.1,78.5 64.2,198.1 136.7,189.3 11.9,-1.5 23.1,-7.3 31.2,-16.3 -0.7,0.1 -1.4,0.2 -2.2,0.3 -72.5,8.8 -154.8,-110.8 -136.7,-189.3 z"
         id="path3663"
         style="fill:#333333" /></g><path
       d="m -1583,-155 c -18,97 -51,101 -54.4,148.2 C -1529,142 -1429,-149 -1583,-155 z"
       id="path3665"
       style="fill:#3a3a3a;display:inline" /><path
       d="m -1576.3,-154.5 c -2.2,-0.2 -4.4,-0.4 -6.7,-0.5 -18,97 -51,101 -54.4,148.2 4.5,6.1 8.9,11.5 13.3,16.2 56.6,-4.1 90.8,-112.6 47.8,-163.9 z"
       id="path3667"
       style="fill:#2a2a2a;display:inline" /><path
       d="m -1622.5,-381.6 c 0,-0.2 0,-0.5 0,-0.7 -0.1,0.2 -0.1,0.3 -0.2,0.5 -4.2,-5.1 -10.6,-7.1 -10.6,-7.1 l -202.4,5.9 c 0,0 -12.1,16.5 -19.3,21.3 -7.2,4.9 0,137.3 0,137.3 0,0 120.1,-40.7 201.4,0 71.4,-50.6 32.9,-154.9 31.1,-157.2 z"
       id="path3669"
       style="fill:#222222;display:inline" /><path
       d="m -1624.5,-381.6 c 0,0 0,-0.5 0,-0.7 -0.1,0.2 -0.1,0.3 -0.2,0.5 -4.2,-5.1 0.2,0.2 0.2,0.2 0,0 -0.5,141.2 -33.9,153.2 5.7,5.7 26.1,17.3 37.5,42.7 11.4,25.4 -8.8,52.7 -8.1,64 0.7,11.3 13.3,34.7 34,40.7 20.7,6 88.7,-26.7 92.7,-78 -13.9,-47.4 -122.2,-222.6 -122.2,-222.6 z"
       id="path3671"
       style="fill:#2a2a2a;display:inline" /><g
       id="g3673"
       style="display:inline"><path
         d="m -1857,-361.7 c 0,0 -17.3,5.3 -22,40.7 -4.7,35.4 -30.7,68.7 -38.7,102 -8,33.3 140.7,67.3 152.7,46.7 12,-20.6 24.7,-66.7 25,-76 0.3,-9.3 28.3,-20.7 35.7,-28.7 7.3,-8 20.7,-48 18,-55.3 -2.7,-7.3 -75.3,5.3 -90,14.7 -14.7,9.3 -56.7,74 -56.7,74 0,0 16.7,-32.9 13.3,-62.1 -3.3,-29.3 -37.3,-56 -37.3,-56 z"
         id="path3675"
         style="fill:#2a2a2a" /><path
         d="m -1843,-241 c -35,-9.3 -4.5,-110.7 -4.3,-111.9 -10,-12.5 -9.7,-8.7 -9.7,-8.7 0,0 -17.3,5.3 -22,40.7 -4.7,35.3 -30.7,68.7 -38.7,102 -8,33.3 140.7,67.3 152.7,46.7 1.7,-3 22.7,-67.9 24.5,-71.7 -47.3,-4.5 -78.8,9.2 -102.5,2.9 z"
         id="path3677"
         style="fill:#3a3a3a" /><path
         d="m -1869.6,-181.8 c 42.1,14.7 97.5,21.7 104.6,9.5 12,-20.7 24.7,-66.7 25,-76 0.3,-9.3 28.3,-20.7 35.7,-28.7 7.3,-8 20.7,-48 18,-55.3 -2.7,-7.3 -75.3,5.3 -90,14.7 -14.7,9.3 -74.2,101.1 -93.3,135.8 z"
         id="path3679"
         style="fill:#3a3a3a" /><path
         d="m -1686.3,-332.3 c -1,-2.8 -11.9,-2.7 -25.9,-1 -2.9,7 -5.8,12.8 -8.1,15.4 -7.3,8 -35.3,19.3 -35.7,28.7 -0.3,9.3 -13,55.3 -25,76 -8.8,15.2 -91.9,0.8 -131.8,-21.2 -2,5.2 -3.6,10.4 -4.9,15.6 -8,33.3 140.7,67.3 152.7,46.7 12,-20.7 24.7,-66.7 25,-76 0.3,-9.3 28.3,-20.7 35.7,-28.7 7.3,-8.2 20.6,-48.2 18,-55.5 z"
         id="path3681"
         style="fill:#333333" /></g><path
       d="m -1627,-447.7 c 0,26.7 -3.9,64.8 -22,81.3 -21,19.2 -63.7,6 -97.5,6 -36.3,0 -75.6,12.2 -96.5,-12 -15.4,-17.8 -18,-38.9 -18,-63.3 0,-37.4 17.5,-84.1 50,-108.7 17.6,-13.3 42.7,-16.3 64.8,-16.3 18.2,0 36,1 51.8,9 39.1,19.6 67.4,63.1 67.4,104 z"
       id="path3683"
       style="fill:#eeeeee;display:inline" /><path
       d="m -1493.7,-558.8 c -4.2,-5.1 0.2,0.2 0.2,0.2 0,0 0,-0.5 0,-0.7 -0.1,0.2 -0.1,0.3 -0.2,0.5 z"
       id="path3685"
       style="fill:#2a2a2a;display:inline" /><path
       d="m -1525.7,-553.8 c -4.2,-5.1 0.2,0.2 0.2,0.2 0,0 0,-0.5 0,-0.7 -0.1,0.2 -0.1,0.3 -0.2,0.5 z"
       id="path3687"
       style="fill:#2a2a2a;display:inline" /><path
       d="m -1596,-127.7 c -0.7,-11.3 19.5,-38.7 8.1,-64 -11.4,-25.3 -55.3,-54.5 -55.3,-54.5 l -14.2,16.8 c 0,0 26.1,17.3 37.5,42.7 11.4,25.4 -8.8,52.7 -8.1,64 0.7,11.3 13.3,34.7 34,40.7 6.6,1.9 18,-0.1 30.6,-5.4 -19.8,-6.6 -31.9,-29.2 -32.6,-40.3 z"
       id="path3689"
       style="fill:#222222;display:inline" /><path
       d="m -1622.5,-381.6 -3.3,35 c 0,0 77,153.4 67.4,182.5 -7,21.1 -44.9,23.8 -57.3,37.7 -10.4,11.6 12.8,35.6 19,36.8 24,4.7 92.3,-49.5 94.3,-69.5 2.1,-19.9 -120.1,-222.5 -120.1,-222.5 z"
       id="path3691"
       style="fill:#3a3a3a;display:inline" /><path
       d="m -1694.3,-551.7 c -15.9,-8 -33.6,-9 -51.8,-9 -22.2,0 -47.2,3 -64.8,16.3 -27.5,20.8 -44.3,57.4 -48.8,90.9 1.9,14.9 6.5,28.3 16.8,40.1 10.8,12.4 42.8,18.8 42.8,20.8 0,14.1 21.4,25.5 47.9,25.5 26.4,0 47.9,-11.4 47.9,-25.5 0,-1.9 42.5,-3 55.5,-14.8 12.8,-11.7 18.5,-34.1 20.7,-55.7 -6.1,-36 -32,-71.4 -66.2,-88.6 z"
       id="path3693"
       style="fill:#ffffff;display:inline" /><path
       d="m -1784.5,-477 c -10.5,1 -15.5,13.5 -25,32.5 -9.5,19 6.5,26 12.5,23 6,-3 19.8,-30.5 25,-36 1.2,-3.3 -2,-20.5 -12.5,-19.5 z"
       id="path3695"
       style="fill:#333333;display:inline" /><path
       d="m -1715.7,-479 c 10.5,1 15.5,13.5 25,32.5 9.5,19 -6.5,26 -12.5,23 -6,-3 -19.8,-30.5 -25,-36 -1.2,-3.3 2,-20.5 12.5,-19.5 z"
       id="path3697"
       style="fill:#333333;display:inline" /><path
       d="m -1776.5,-403.3 c 0,-8 13.5,-9.3 22.8,-9.3 13,0 25.3,4 25.3,9.3 0,5.3 -20,17.5 -24,17.5 -4.1,0 -24.1,-9.5 -24.1,-17.5 z"
       id="path3699"
       style="fill:#222222;display:inline" /><path
       d="m -1752,-377.7 c 0,0 -19,7.9 -43.2,-3.3 0,2.5 21.2,13.8 43.2,13.8 22,0 43.2,-11.3 43.2,-13.8 -24.2,11.2 -43.2,3.3 -43.2,3.3 z"
       id="path3701"
       style="fill:#333333;display:inline" /><path
       d="m -1814.3,-539.7 c -13,-7 -24.8,-30.2 -36.7,-18.3 -11.9,11.9 -23.1,54.5 -19.3,58.3 3.8,3.8 17,20.6 17,20.6 0,0 41,-53.2 39,-60.6 z"
       id="path3703"
       style="fill:#2a2a2a;display:inline" /><path
       d="m -1693,-547 c 0,0 12.4,-23.5 23.7,-29.7 42.3,5 34.7,58.3 35.3,66 -3.3,3.3 -13.7,6.3 -13.7,6.3 L -1693,-547 z"
       id="path3705"
       style="fill:#2a2a2a;display:inline" /><path
       d="m -1752.5,-396.8 c 2.8,0 13.7,-6.1 19.8,-11.6 -4.7,-2.6 -12.7,-4.2 -21,-4.2 -6.6,0 -15.5,0.6 -19.9,4 5.6,6.3 18,11.8 21.1,11.8 z"
       id="path3707"
       style="fill:#333333;display:inline" /><path
       d="m -1822.4,-522.6 c 5.1,-8.1 8.6,-14.8 8,-17.1 -13,-7 -24.8,-30.2 -36.7,-18.3 -11.8,11.8 -23.1,54.5 -19.3,58.3 1.1,1.1 3,3.3 5.1,5.9 3.7,-14 10.3,-31.3 17.2,-38.2 8.5,-8.4 16.9,0.9 25.7,9.4 z"
       id="path3709"
       style="fill:#333333;display:inline" /><path
       d="m -1669.3,-576.7 c -11.2,6.2 -23.7,29.7 -23.7,29.7 l 4.3,4.1 c 3.6,-4.5 7.5,-8.6 11.4,-10.7 28.6,3.4 34.4,28.9 35.3,47.4 3,-1.2 6.4,-2.7 8,-4.4 -0.7,-7.7 7,-61.1 -35.3,-66.1 z"
       id="path3711"
       style="fill:#333333;display:inline" /><path
       d="m -1825,-248.7 c 0,0 0.7,-62.8 42.3,-81.6 -3.4,59.9 -42.3,81.6 -42.3,81.6 z"
       id="path3713"
       style="fill:#689f38;display:inline" /><path
       d="m -1547.7,-196 -4.7,5.3 c 0,0 -95.3,-149.7 -233.3,-135 -2,-1.9 -2.9,-3.3 -2.7,-4.2 140.7,-25.4 240.7,133.9 240.7,133.9 z"
       id="path3715"
       style="fill:#689f38;display:inline" /><path
       d="m -1915.7,-354 c 0,0 91.3,-12.7 131.3,25.3 -87.9,9.4 -131.3,-25.3 -131.3,-25.3 z"
       id="path3717"
       style="fill:#689f38;display:inline" /><path
       d="m -1832.4,-401.2 c 0,0 49.6,33.4 47.2,73.3 -46.2,-33.9 -47.2,-73.3 -47.2,-73.3 z"
       id="path3719"
       style="fill:#689f38;display:inline" /><path
       d="m -1788.3,-329.8 c -62.1,21.8 -81.7,77.3 -81.7,77.3 0,0 -0.2,-2.4 5,2.7 28.3,-50.7 79.4,-78 79.4,-78 0,0 6.8,-2 -2.7,-2 z"
       id="path3721"
       style="fill:#689f38;display:inline" /><g
       id="g3723"
       style="display:inline"><path
         d="m -1845.2,-189.7 c 0,0 -34.3,-35.8 -21.3,-69.4 31.2,35.7 21.3,69.4 21.3,69.4 z"
         id="path3725"
         style="fill:#689f38" /></g><path
       d="m -1940.6,-203.7 c 0,0 32.1,-54 77.5,-49.4 -33,50.1 -77.5,49.4 -77.5,49.4 z"
       id="path3727"
       style="fill:#689f38;display:inline" /><g
       id="g3729"
       style="display:inline"><path
         d="m -1928.8,-266.8 c 0,0 45,-11 66,15.3 -43.5,8.5 -66,-15.3 -66,-15.3 z"
         id="path3731"
         style="fill:#689f38" /></g><path
       d="m -1828.8,-392.3 c 3.1,13.1 12.5,37 40.3,59.3 -3.5,-26.9 -28.3,-49.7 -40.3,-59.3 z"
       id="path3733"
       style="fill:#8bc34a;display:inline" /><path
       d="m -1794.7,-332.1 c -33.2,-25 -86,-24.1 -110.2,-22 17.9,10.8 54.6,26.6 110.2,22 z"
       id="path3735"
       style="fill:#8bc34a;display:inline" /><path
       d="m -1784.7,-327.1 c -27.9,19.7 -36.6,54.4 -39.3,73.4 14.3,-12.2 33.9,-35.4 39.3,-73.4 z"
       id="path3737"
       style="fill:#8bc34a;display:inline" /><path
       d="m -1866.4,-253.4 c -16.3,-15.6 -42.4,-14.4 -55,-12.6 7.8,5.8 26.3,16.2 55,12.6 z"
       id="path3739"
       style="fill:#8bc34a;display:inline" /><path
       d="m -1866.3,-254.1 c -29.2,3.1 -51.6,28.8 -61.2,41.8 14.5,-3.1 39.7,-12.6 61.2,-41.8 z"
       id="path3741"
       style="fill:#8bc34a;display:inline" /><path
       d="m -1798,-236.4 c 0,0 0.1,-0.2 0.2,-0.5 -0.2,0.2 -0.2,0.5 -0.2,0.5 z"
       id="path3743"
       style="fill:#689f38;display:inline" /><path
       d="m -1795,-233.4 c 0,0 0.1,-0.2 0.2,-0.5 -0.2,0.2 -0.2,0.5 -0.2,0.5 z"
       id="path3745"
       style="fill:#689f38;display:inline" /><path
       d="m -1788.9,-330.1 c -51.7,20.7 -77.9,66.2 -81.5,75.1 0.4,0.4 4.4,2.9 4.9,3.4 11.1,-36.3 48.6,-64.2 77.6,-76.7 0.1,-1.2 -0.3,-2.2 -1,-1.8 z"
       id="path3747"
       style="fill:#8bc34a;display:inline" /><path
       d="m -1866.6,-254 c -4.5,22.4 9.4,44.6 17.6,55.5 1,-11.1 -0.2,-32.5 -17.6,-55.5 z"
       id="path3749"
       style="fill:#8bc34a;display:inline" /><path
       d="m -1864.9,-246.8 c -3,14.6 6.1,29.1 11.5,36.2 0.7,-7.2 -0.1,-21.1 -11.5,-36.2 z"
       id="path3751"
       style="fill:#a9d86c;display:inline" /><path
       d="m -1874.6,-249.8 c -17.1,1.8 -30.3,16.9 -35.9,24.5 8.5,-1.8 23.3,-7.4 35.9,-24.5 z"
       id="path3753"
       style="fill:#a9d86c;display:inline" /><path
       d="m -1872.2,-255.4 c -8.8,-8.4 -22.9,-7.7 -29.7,-6.8 4.2,3.1 14.2,8.8 29.7,6.8 z"
       id="path3755"
       style="fill:#a9d86c;display:inline" /><path
       d="m -1790.5,-318 c -11.5,9.3 -15.1,25.6 -16.2,34.5 5.9,-5.7 14,-16.6 16.2,-34.5 z"
       id="path3757"
       style="fill:#a9d86c;display:inline" /><path
       d="m -1807.7,-336.5 c -18.3,-11.8 -47.2,-11.3 -60.6,-10.3 9.9,5.1 30,12.5 60.6,10.3 z"
       id="path3759"
       style="fill:#a9d86c;display:inline" /><path
       d="m -1551.2,-191.3 2.1,-2.3 c -8.6,-13.3 -104.5,-155.8 -239.8,-136.5 0.3,0.3 0.7,1.5 1,1.8 141.2,-13.1 236.7,137 236.7,137 z"
       id="path3761"
       style="fill:#8bc34a;display:inline" /><path
       d="m -1818.4,-376.5 c 1.9,8 7.7,22.8 24.8,36.5 -2.1,-16.6 -17.3,-30.6 -24.8,-36.5 z"
       id="path3763"
       style="fill:#a9d86c;display:inline" /><g
       id="g3765"
       style="display:inline"><path
         d="m -2583,-531 h -5.4 c -148.3,0 -268.6,120.3 -268.6,268.6 v 5.4 c 0,148.3 120.3,268.6 268.6,268.6 h 5.4 c 148.3,0 268.6,-120.3 268.6,-268.6 v -5.4 c 0,-148.4 -120.3,-268.6 -268.6,-268.6 z"
         id="path3767"
         style="fill:#0288d1" /><path
         d="m -2697.3,-254 c 0,0 -140,170.3 104.6,163.9 188.6,-4.9 150.5,-84.8 148.4,-102.4 -12.7,-28.3 -55.8,-61.5 -55.8,-61.5 0,0 -31.2,-21.2 -92.9,-21.9 -34.4,-5 -57.2,6.9 -104.3,21.9 z"
         id="path3769"
         style="fill:#eeeeee" /><path
         d="m -2594.2,-142.4 c 102.4,-2.7 138,-27.4 148.7,-52.3 -13.9,-27.8 -54.8,-59.3 -54.8,-59.3 0,0 -31.2,-21.2 -92.9,-21.9 -34.2,-4.9 -57.1,6.9 -104.2,21.9 0,0 -25.6,31.2 -35.8,66.3 13.1,27.1 51.3,47.6 139,45.3 z"
         id="path3771"
         style="fill:#ffffff" /><g
         id="g3773"><path
           d="m -2739.5,-165.3 c 0,-4.7 19.5,-34.1 69,0 49.5,34.1 43.1,52.6 43.1,52.6 0,0 -14.8,19 13.4,35.9 7.1,24 -9.7,42.9 -29,45.2 -51.2,6.4 -109.3,-78.1 -96.5,-133.7 z"
           id="path3775"
           style="fill:#222222" /><path
           d="m -2614.3,-54.1 c -18.6,2.1 -38.1,-7.7 -54.7,-23.6 -11.8,-23.2 -17.5,-49.1 -12.5,-70.6 0,-2.3 4.6,-10.4 15,-14.2 -1.3,-0.9 -2.5,-1.8 -3.9,-2.7 -18.2,-12.5 -32.3,-16.5 -42.9,-16.3 0,0 -0.1,0 -0.1,0 -1.7,0 -3.4,0.2 -4.9,0.4 0,0 0,0 0,0 -5.2,0.9 -9.4,2.8 -12.6,5 0,0 0,0 0,0 -1,0.7 -1.8,1.4 -2.6,2.1 0,0 0,0 0,0 -0.3,0.2 -0.5,0.5 -0.7,0.7 0,0 0,0 0,0 -0.5,0.5 -0.9,0.9 -1.3,1.4 0,0 0,0 0,0.1 -0.2,0.2 -0.4,0.4 -0.5,0.6 0,0 0,0 -0.1,0.1 -0.4,0.4 -0.7,0.9 -1,1.3 0,0 0,0 0,0.1 -0.1,0.2 -0.2,0.4 -0.4,0.5 0,0 0,0.1 -0.1,0.1 -0.1,0.2 -0.2,0.4 -0.3,0.5 0,0 0,0 0,0 -0.1,0.2 -0.2,0.4 -0.3,0.6 0,0 0,0.1 0,0.1 -0.1,0.1 -0.1,0.3 -0.2,0.4 0,0 0,0.1 -0.1,0.1 -0.1,0.1 -0.1,0.3 -0.2,0.4 0,0 0,0.1 0,0.1 -0.1,0.2 -0.1,0.3 -0.2,0.4 0,0 0,0 0,0.1 0,0.1 -0.1,0.2 -0.1,0.3 0,0 0,0.1 0,0.1 0,0.1 0,0.2 0,0.2 0,0 0,0.1 0,0.1 0,0.1 0,0.2 0,0.3 -12.8,55.5 45.3,140 96.6,133.8 0.7,-0.1 1.3,-0.2 1.9,-0.3 0.1,0 0.1,0 0.2,0 11.2,-2.1 21.7,-10.4 26,-22.2 z"
           id="path3777"
           style="fill:#2a2a2a" /><path
           d="m -2719,-176.6 c 0,-0.9 0.7,-2.7 2.2,-4.7 -15.8,1.8 -22.7,13.2 -22.7,16 -12.8,55.5 45.3,140 96.6,133.8 8.4,-1 16.3,-5.2 22,-11.5 -0.5,0.1 -1,0.2 -1.5,0.2 -51.3,6.2 -109.4,-78.2 -96.6,-133.8 z"
           id="path3779"
           style="fill:#333333" /></g><path
         d="m -2481.8,-194 c -12.7,68.5 -36,71.4 -38.5,104.7 76.6,105.1 147.3,-100.5 38.5,-104.7 z"
         id="path3781"
         style="fill:#3a3a3a" /><path
         d="m -2477.1,-193.7 c -1.5,-0.1 -3.1,-0.3 -4.7,-0.3 -12.7,68.5 -36,71.4 -38.5,104.7 3.2,4.3 6.3,8.1 9.4,11.4 40,-2.9 64.2,-79.5 33.8,-115.8 z"
         id="path3783"
         style="fill:#2a2a2a" /><path
         d="m -2509.7,-354.1 c 0,-0.2 0,-0.3 0,-0.5 0,0.1 -0.1,0.2 -0.1,0.3 -3,-3.6 -7.5,-5 -7.5,-5 l -143,4.2 c 0,0 -8.6,11.6 -13.7,15.1 -5.1,3.4 0,97 0,97 0,0 84.8,-28.7 142.3,0 50.4,-35.8 23.2,-109.5 22,-111.1 z"
         id="path3785"
         style="fill:#222222" /><path
         d="m -2511.1,-354.1 c 0,0 0,-0.3 0,-0.5 0,0.1 -0.1,0.2 -0.1,0.3 -3.1,-3.5 0.1,0.2 0.1,0.2 0,0 -0.4,99.8 -23.9,108.3 4,4 18.5,12.2 26.5,30.1 8,17.9 -6.2,37.2 -5.7,45.2 0.5,8 9.4,24.5 24,28.7 14.6,4.2 62.6,-18.8 65.5,-55.1 -9.9,-33.4 -86.4,-157.2 -86.4,-157.2 z"
         id="path3787"
         style="fill:#2a2a2a" /><g
         id="g3789"><path
           d="m -2675.4,-340 c 0,0 -12.2,3.8 -15.5,28.7 -3.3,25 -21.7,48.5 -27.3,72.1 -5.7,23.6 99.4,47.6 107.9,33 8.5,-14.6 17.4,-47.1 17.7,-53.7 0.2,-6.6 20,-14.6 25.2,-20.3 5.2,-5.7 14.6,-33.9 12.7,-39.1 -1.9,-5.2 -53.2,3.8 -63.6,10.4 -10.4,6.6 -40,52.3 -40,52.3 0,0 11.8,-23.3 9.4,-43.9 -2.5,-20.7 -26.5,-39.5 -26.5,-39.5 z"
           id="path3791"
           style="fill:#2a2a2a" /><path
           d="m -2665.6,-254.8 c -24.7,-6.6 -3.2,-78.2 -3,-79.1 -7,-8.8 -6.8,-6.2 -6.8,-6.2 0,0 -12.2,3.8 -15.5,28.7 -3.3,25 -21.7,48.5 -27.3,72.1 -5.7,23.6 99.4,47.6 107.9,33 1.2,-2.1 16.1,-48 17.3,-50.7 -33.5,-3 -55.8,6.7 -72.6,2.2 z"
           id="path3793"
           style="fill:#3a3a3a" /><path
           d="m -2684.3,-212.9 c 29.7,10.4 68.9,15.4 73.9,6.7 8.5,-14.6 17.4,-47.1 17.7,-53.7 0.2,-6.6 20,-14.6 25.2,-20.3 5.2,-5.7 14.6,-33.9 12.7,-39.1 -1.9,-5.2 -53.2,3.8 -63.6,10.4 -10.4,6.6 -52.4,71.5 -65.9,96 z"
           id="path3795"
           style="fill:#3a3a3a" /><path
           d="m -2554.9,-319.3 c -0.7,-1.9 -8.4,-1.9 -18.3,-0.7 -2,4.9 -4.1,9.1 -5.8,10.9 -5.2,5.7 -25,13.7 -25.2,20.3 -0.2,6.6 -9.2,39.1 -17.7,53.7 -6.2,10.8 -64.9,0.5 -93.1,-15 -1.4,3.7 -2.6,7.3 -3.5,11 -5.7,23.6 99.4,47.6 107.9,33 8.5,-14.6 17.4,-47.1 17.7,-53.7 0.2,-6.6 20,-14.6 25.2,-20.3 5.3,-5.7 14.7,-34 12.8,-39.2 z"
           id="path3797"
           style="fill:#333333" /></g><path
         d="m -2512.9,-400.8 c 0,18.9 -2.7,45.8 -15.5,57.5 -14.8,13.5 -45,4.2 -68.9,4.2 -25.7,0 -53.4,8.6 -68.2,-8.5 -10.9,-12.6 -12.7,-27.5 -12.7,-44.7 0,-26.4 12.4,-59.4 35.3,-76.8 12.4,-9.4 30.2,-11.5 45.8,-11.5 12.9,0 25.4,0.7 36.6,6.4 27.6,13.8 47.6,44.5 47.6,73.4 z"
         id="path3799"
         style="fill:#eeeeee" /><path
         d="m -2418.7,-479.3 c -3,-3.6 0.1,0.2 0.1,0.2 0,0 0,-0.3 0,-0.5 -0.1,0.1 -0.1,0.2 -0.1,0.3 z"
         id="path3801"
         style="fill:#2a2a2a" /><path
         d="m -2441.3,-475.8 c -3,-3.6 0.1,0.2 0.1,0.2 0,0 0,-0.3 0,-0.5 -0.1,0.1 -0.1,0.2 -0.1,0.3 z"
         id="path3803"
         style="fill:#2a2a2a" /><path
         d="m -2491,-174.7 c -0.5,-8 13.8,-27.3 5.7,-45.2 -8,-17.9 -39.1,-38.5 -39.1,-38.5 l -10,11.9 c 0,0 18.5,12.2 26.5,30.1 8,17.9 -6.2,37.2 -5.7,45.2 0.5,8 9.4,24.5 24,28.7 4.7,1.4 12.7,-0.1 21.7,-3.8 -14.1,-4.6 -22.7,-20.6 -23.1,-28.4 z"
         id="path3805"
         style="fill:#222222" /><path
         d="m -2509.7,-354.1 -2.3,24.7 c 0,0 54.4,108.3 47.6,128.9 -4.9,14.9 -31.7,16.8 -40.5,26.6 -7.3,8.2 9,25.2 13.4,26 17,3.3 65.2,-35 66.6,-49.1 1.5,-14 -84.8,-157.1 -84.8,-157.1 z"
         id="path3807"
         style="fill:#3a3a3a" /><path
         d="m -2560.5,-474.2 c -11.2,-5.6 -23.8,-6.4 -36.6,-6.4 -15.7,0 -33.4,2.1 -45.8,11.5 -19.4,14.7 -31.3,40.6 -34.5,64.2 1.3,10.5 4.6,20 11.9,28.4 7.6,8.8 30.2,13.3 30.2,14.7 0,10 15.1,18 33.8,18 18.7,0 33.8,-8.1 33.8,-18 0,-1.4 30,-2.1 39.2,-10.5 9,-8.2 13.1,-24.1 14.6,-39.3 -4.1,-25.5 -22.4,-50.5 -46.6,-62.6 z"
         id="path3809"
         style="fill:#ffffff" /><path
         d="m -2624.2,-421.5 c -7.4,0.7 -11,9.5 -17.7,23 -6.7,13.4 4.6,18.4 8.8,16.2 4.2,-2.1 14,-21.5 17.7,-25.4 0.9,-2.3 -1.4,-14.5 -8.8,-13.8 z"
         id="path3811"
         style="fill:#333333" /><path
         d="m -2575.6,-422.9 c 7.4,0.7 11,9.5 17.7,23 6.7,13.4 -4.6,18.4 -8.8,16.2 -4.2,-2.2 -14,-21.5 -17.7,-25.4 -0.9,-2.3 1.4,-14.5 8.8,-13.8 z"
         id="path3813"
         style="fill:#333333" /><path
         d="m -2618.6,-369.4 c 0,-5.7 9.5,-6.5 16.1,-6.5 9.2,0 17.9,2.8 17.9,6.5 0,3.7 -14.1,12.4 -17,12.4 -2.8,0 -17,-6.7 -17,-12.4 z"
         id="path3815"
         style="fill:#222222" /><path
         d="m -2601.2,-351.3 c 0,0 -13.4,5.6 -30.5,-2.4 0,1.8 15,9.7 30.5,9.7 15.5,0 30.5,-7.9 30.5,-9.7 -17.1,8 -30.5,2.4 -30.5,2.4 z"
         id="path3817"
         style="fill:#333333" /><path
         d="m -2645.3,-465.8 c -9.2,-4.9 -17.5,-21.3 -25.9,-13 -8.4,8.3 -16.3,38.5 -13.7,41.2 2.7,2.7 12,14.6 12,14.6 0,0 29,-37.6 27.6,-42.8 z"
         id="path3819"
         style="fill:#2a2a2a" /><path
         d="m -2559.6,-470.9 c 0,0 8.8,-16.6 16.7,-21 29.9,3.5 24.5,41.2 25,46.6 -2.3,2.3 -9.7,4.5 -9.7,4.5 l -32,-30.1 z"
         id="path3821"
         style="fill:#2a2a2a" /><path
         d="m -2601.6,-364.8 c 2,0 9.7,-4.3 14,-8.2 -3.3,-1.8 -9,-3 -14.9,-3 -4.7,0 -10.9,0.5 -14.1,2.8 4,4.5 12.8,8.4 15,8.4 z"
         id="path3823"
         style="fill:#333333" /><path
         d="m -2651,-453.7 c 3.6,-5.8 6.1,-10.5 5.7,-12.1 -9.2,-4.9 -17.5,-21.3 -25.9,-13 -8.4,8.4 -16.3,38.5 -13.7,41.2 0.8,0.8 2.1,2.3 3.6,4.1 2.6,-9.9 7.3,-22.1 12.2,-27 6,-5.8 11.9,0.8 18.1,6.8 z"
         id="path3825"
         style="fill:#333333" /><path
         d="m -2542.8,-491.9 c -7.9,4.4 -16.7,21 -16.7,21 l 3,2.9 c 2.5,-3.2 5.3,-6.1 8,-7.6 20.2,2.4 24.3,20.4 25,33.5 2.1,-0.8 4.5,-1.9 5.7,-3.1 -0.5,-5.5 4.9,-43.2 -25,-46.7 z"
         id="path3827"
         style="fill:#333333" /><path
         d="m -2652.8,-260.2 c 0,0 0.5,-44.4 29.9,-57.7 -2.4,42.4 -29.9,57.7 -29.9,57.7 z"
         id="path3829"
         style="fill:#689f38" /><path
         d="m -2456.9,-223 -3.3,3.8 c 0,0 -67.4,-105.7 -164.8,-95.4 -1.4,-1.4 -2.1,-2.4 -1.9,-3 99.4,-17.9 170,94.6 170,94.6 z"
         id="path3831"
         style="fill:#689f38" /><path
         d="m -2716.9,-334.6 c 0,0 64.5,-8.9 92.8,17.9 -62.2,6.6 -92.8,-17.9 -92.8,-17.9 z"
         id="path3833"
         style="fill:#689f38" /><path
         d="m -2658.1,-367.9 c 0,0 35.1,23.6 33.3,51.8 -32.6,-24 -33.3,-51.8 -33.3,-51.8 z"
         id="path3835"
         style="fill:#689f38" /><path
         d="m -2626.9,-317.5 c -43.9,15.4 -57.8,54.6 -57.8,54.6 0,0 -0.1,-1.7 3.5,1.9 20,-35.8 56.1,-55.1 56.1,-55.1 0,0 4.9,-1.4 -1.8,-1.4 z"
         id="path3837"
         style="fill:#689f38" /><g
         id="g3839"><path
           d="m -2667.1,-218.5 c 0,0 -24.3,-25.3 -15.1,-49 22.1,25.2 15.1,49 15.1,49 z"
           id="path3841"
           style="fill:#689f38" /></g><path
         d="m -2734.5,-228.4 c 0,0 22.7,-38.1 54.8,-34.9 -23.4,35.4 -54.8,34.9 -54.8,34.9 z"
         id="path3843"
         style="fill:#689f38" /><g
         id="g3845"><path
           d="m -2726.2,-273 c 0,0 31.8,-7.8 46.6,10.8 -30.6,6.1 -46.6,-10.8 -46.6,-10.8 z"
           id="path3847"
           style="fill:#689f38" /></g><path
         d="m -2655.5,-361.6 c 2.2,9.2 8.8,26.1 28.5,41.9 -2.5,-19.1 -20,-35.1 -28.5,-41.9 z"
         id="path3849"
         style="fill:#8bc34a" /><path
         d="m -2631.4,-319.1 c -23.5,-17.7 -60.7,-17 -77.9,-15.6 12.7,7.7 38.6,18.8 77.9,15.6 z"
         id="path3851"
         style="fill:#8bc34a" /><path
         d="m -2624.3,-315.6 c -19.7,13.9 -25.9,38.4 -27.8,51.8 10.1,-8.6 23.9,-25 27.8,-51.8 z"
         id="path3853"
         style="fill:#8bc34a" /><path
         d="m -2682.1,-263.5 c -11.5,-11 -29.9,-10.1 -38.9,-8.9 5.6,4.1 18.7,11.5 38.9,8.9 z"
         id="path3855"
         style="fill:#8bc34a" /><path
         d="m -2682,-264 c -20.7,2.2 -36.5,20.3 -43.2,29.6 10.2,-2.2 28,-9 43.2,-29.6 z"
         id="path3857"
         style="fill:#8bc34a" /><path
         d="m -2633.7,-251.5 c 0,0 0,-0.1 0.1,-0.3 -0.2,0.1 -0.1,0.3 -0.1,0.3 z"
         id="path3859"
         style="fill:#689f38" /><path
         d="m -2631.6,-249.4 c 0,0 0,-0.1 0.1,-0.3 -0.1,0.1 -0.1,0.3 -0.1,0.3 z"
         id="path3861"
         style="fill:#689f38" /><path
         d="m -2627.3,-317.7 c -36.5,14.6 -55,46.8 -57.6,53 0.3,0.3 3.1,2 3.5,2.4 7.8,-25.6 34.4,-45.4 54.8,-54.2 0,-0.8 -0.2,-1.5 -0.7,-1.2 z"
         id="path3863"
         style="fill:#8bc34a" /><path
         d="m -2682.2,-263.9 c -3.2,15.8 6.6,31.5 12.5,39.2 0.6,-7.9 -0.2,-23 -12.5,-39.2 z"
         id="path3865"
         style="fill:#8bc34a" /><path
         d="m -2681,-258.8 c -2.1,10.3 4.3,20.6 8.1,25.6 0.5,-5.1 -0.1,-15 -8.1,-25.6 z"
         id="path3867"
         style="fill:#a9d86c" /><path
         d="m -2687.9,-260.9 c -12.1,1.3 -21.4,11.9 -25.4,17.3 6.1,-1.3 16.5,-5.3 25.4,-17.3 z"
         id="path3869"
         style="fill:#a9d86c" /><path
         d="m -2686.2,-264.9 c -6.2,-5.9 -16.2,-5.5 -21,-4.8 3,2.2 10.1,6.2 21,4.8 z"
         id="path3871"
         style="fill:#a9d86c" /><path
         d="m -2628.4,-309.2 c -8.1,6.5 -10.7,18.1 -11.5,24.4 4.2,-4 9.9,-11.7 11.5,-24.4 z"
         id="path3873"
         style="fill:#a9d86c" /><path
         d="m -2640.6,-322.2 c -12.9,-8.3 -33.4,-8 -42.8,-7.3 7,3.6 21.2,8.8 42.8,7.3 z"
         id="path3875"
         style="fill:#a9d86c" /><path
         d="m -2459.4,-219.7 1.5,-1.6 c -6.1,-9.4 -73.8,-110.1 -169.4,-96.4 0.2,0.2 0.5,1 0.7,1.3 99.8,-9.3 167.2,96.7 167.2,96.7 z"
         id="path3877"
         style="fill:#8bc34a" /><path
         d="m -2648.1,-350.5 c 1.4,5.7 5.4,16.1 17.5,25.8 -1.5,-11.7 -12.3,-21.6 -17.5,-25.8 z"
         id="path3879"
         style="fill:#a9d86c" /></g></g><g
     id="Layer_4"
     style="display:none"><path
       d="m 212,380 c 0,0 -198.2,241.1 148,232 267,-7 213,-120 210,-145 -18,-40 -79,-87 -79,-87 0,0 -44.2,-30 -131.5,-31 -48.5,-7 -80.8,9.8 -147.5,31 z"
       id="path3882"
       style="fill:#eeeeee;display:inline" /><path
       d="M 358,538 C 502.9,534.2 553.3,499.2 568.5,463.9 548.9,424.6 491,380 491,380 c 0,0 -44.2,-30 -131.5,-31 -48.5,-7 -80.8,9.8 -147.5,31 0,0 -36.3,44.1 -50.7,93.9 18.4,38.4 72.5,67.4 196.7,64.1 z"
       id="path3884"
       style="fill:#ffffff;display:inline" /><g
       id="g3886"
       style="display:inline"><path
         d="m 152.3,505.7 c 0,-6.7 27.7,-48.3 97.7,0 70,48.3 61,74.5 61,74.5 0,0 -21,26.8 19,50.8 10,34 -13.7,60.7 -41,64 -72.5,8.8 -154.7,-110.7 -136.7,-189.3 z"
         id="path3888"
         style="fill:#222222" /><path
         d="m 329.5,663 c -26.3,3 -53.9,-10.8 -77.4,-33.5 -16.7,-32.9 -24.7,-69.5 -17.7,-99.9 0,-3.2 6.5,-14.7 21.2,-20.1 -1.8,-1.3 -3.6,-2.6 -5.5,-3.9 -25.7,-17.8 -45.7,-23.4 -60.7,-23 -0.1,0 -0.1,0 -0.2,0 -2.5,0.1 -4.8,0.3 -7,0.6 0,0 0,0 -0.1,0 -7.4,1.2 -13.3,3.9 -17.8,7.1 0,0 0,0 0,0 -1.3,0.9 -2.6,1.9 -3.7,2.9 0,0 0,0 0,0 -0.4,0.3 -0.7,0.7 -1.1,1 0,0 0,0 0,0 -0.7,0.7 -1.3,1.3 -1.9,2 0,0 0,0 -0.1,0.1 -0.3,0.3 -0.5,0.6 -0.8,0.9 0,0 -0.1,0.1 -0.1,0.1 -0.5,0.6 -1,1.3 -1.4,1.9 0,0 0,0.1 -0.1,0.1 -0.2,0.3 -0.3,0.5 -0.5,0.8 0,0.1 -0.1,0.1 -0.1,0.2 -0.2,0.3 -0.3,0.5 -0.5,0.8 0,0 0,0 0,0.1 -0.2,0.3 -0.3,0.5 -0.4,0.8 0,0 0,0.1 -0.1,0.1 -0.1,0.2 -0.2,0.4 -0.3,0.6 0,0.1 -0.1,0.1 -0.1,0.2 -0.1,0.2 -0.2,0.4 -0.2,0.5 0,0.1 0,0.1 -0.1,0.2 -0.1,0.2 -0.2,0.4 -0.2,0.6 0,0 0,0.1 0,0.1 -0.1,0.2 -0.1,0.3 -0.1,0.5 0,0.1 0,0.1 0,0.2 0,0.1 -0.1,0.2 -0.1,0.3 0,0 0,0.1 0,0.1 0,0.1 0,0.3 0,0.4 -18.1,78.5 64.1,198 136.6,189.2 0.9,-0.1 1.8,-0.3 2.7,-0.4 0.1,0 0.2,0 0.2,0 16.7,-3.2 31.6,-14.9 37.6,-31.6 z"
         id="path3890"
         style="fill:#2a2a2a" /><path
         d="m 181.3,489.7 c 0,-1.3 1,-3.8 3.1,-6.7 -22.4,2.6 -32.1,18.8 -32.1,22.7 -18,78.6 64.2,198.1 136.7,189.3 11.9,-1.5 23.1,-7.3 31.2,-16.3 -0.7,0.1 -1.4,0.2 -2.2,0.3 -72.5,8.8 -154.7,-110.7 -136.7,-189.3 z"
         id="path3892"
         style="fill:#333333" /></g><path
       d="M 517,465 C 499,562 466,566 462.6,613.2 571,762 671,471 517,465 z"
       id="path3894"
       style="fill:#3a3a3a;display:inline" /><path
       d="m 523.7,465.5 c -2.2,-0.2 -4.4,-0.4 -6.7,-0.5 -18,97 -51,101 -54.4,148.2 4.5,6.1 8.9,11.5 13.3,16.2 56.6,-4.1 90.8,-112.6 47.8,-163.9 z"
       id="path3896"
       style="fill:#2a2a2a;display:inline" /><path
       d="m 477.5,238.4 c 0,-0.2 0,-0.5 0,-0.7 -0.1,0.2 -0.1,0.3 -0.2,0.5 -4.2,-5.1 -10.6,-7.1 -10.6,-7.1 L 264.3,237 c 0,0 -12.1,16.5 -19.3,21.3 -7.2,4.9 0,137.3 0,137.3 0,0 120.1,-40.7 201.4,0 71.4,-50.6 32.9,-154.9 31.1,-157.2 z"
       id="path3898"
       style="fill:#222222;display:inline" /><path
       d="m 475.5,238.4 c 0,0 0,-0.5 0,-0.7 -0.1,0.2 -0.1,0.3 -0.2,0.5 -4.2,-5.1 0.2,0.2 0.2,0.2 0,0 -0.5,141.2 -33.9,153.2 5.7,5.7 26.1,17.3 37.5,42.7 11.4,25.4 -8.8,52.7 -8.1,64 0.7,11.3 13.3,34.7 34,40.7 20.7,6 88.7,-26.7 92.7,-78 C 583.8,413.6 475.5,238.4 475.5,238.4 z"
       id="path3900"
       style="fill:#2a2a2a;display:inline" /><g
       id="g3902"
       style="display:inline"><path
         d="m 243,258.3 c 0,0 -17.3,5.3 -22,40.7 -4.7,35.4 -30.7,68.7 -38.7,102 -8,33.3 140.7,67.3 152.7,46.7 12,-20.7 24.7,-66.7 25,-76 0.3,-9.3 28.3,-20.7 35.7,-28.7 7.3,-8 20.7,-48 18,-55.3 -2.7,-7.3 -75.3,5.3 -90,14.7 -14.7,9.3 -56.7,74 -56.7,74 0,0 16.7,-32.9 13.3,-62.1 C 277,285 243,258.3 243,258.3 z"
         id="path3904"
         style="fill:#2a2a2a" /><path
         d="m 257,379 c -35,-9.3 -4.5,-110.7 -4.3,-111.9 -10,-12.5 -9.7,-8.7 -9.7,-8.7 0,0 -17.3,5.3 -22,40.7 -4.7,35.3 -30.7,68.7 -38.7,102 -8,33.3 140.7,67.3 152.7,46.7 1.7,-3 22.7,-67.9 24.5,-71.7 -47.3,-4.5 -78.8,9.2 -102.5,2.9 z"
         id="path3906"
         style="fill:#3a3a3a" /><path
         d="m 230.4,438.2 c 42.1,14.7 97.5,21.7 104.6,9.5 12,-20.7 24.7,-66.7 25,-76 0.3,-9.3 28.3,-20.7 35.7,-28.7 7.3,-8 20.7,-48 18,-55.3 -2.7,-7.3 -75.3,5.3 -90,14.7 -14.7,9.3 -74.2,101.1 -93.3,135.8 z"
         id="path3908"
         style="fill:#3a3a3a" /><path
         d="m 413.7,287.7 c -1,-2.8 -11.9,-2.7 -25.9,-1 -2.9,7 -5.8,12.8 -8.1,15.4 -7.3,8 -35.3,19.3 -35.7,28.7 -0.3,9.3 -13,55.3 -25,76 -8.8,15.2 -91.9,0.8 -131.8,-21.2 -2,5.2 -3.6,10.4 -4.9,15.6 -8,33.3 140.7,67.3 152.7,46.7 12,-20.7 24.7,-66.7 25,-76 0.3,-9.3 28.3,-20.7 35.7,-28.7 7.3,-8.2 20.6,-48.2 18,-55.5 z"
         id="path3910"
         style="fill:#333333" /></g><path
       d="m 473,172.3 c 0,26.7 -3.9,64.8 -22,81.3 -21,19.2 -63.7,6 -97.5,6 -36.3,0 -75.6,12.2 -96.5,-12 -15.4,-17.8 -18,-38.9 -18,-63.3 0,-37.4 17.5,-84.1 50,-108.7 17.6,-13.3 42.7,-16.3 64.8,-16.3 18.2,0 36,1 51.8,9 39.1,19.6 67.4,63.1 67.4,104 z"
       id="path3912"
       style="fill:#eeeeee;display:inline" /><path
       d="m 606.3,61.2 c -4.2,-5.1 0.2,0.2 0.2,0.2 0,0 0,-0.5 0,-0.7 -0.1,0.2 -0.1,0.3 -0.2,0.5 z"
       id="path3914"
       style="fill:#2a2a2a;display:inline" /><path
       d="m 574.3,66.2 c -4.2,-5.1 0.2,0.2 0.2,0.2 0,0 0,-0.5 0,-0.7 -0.1,0.2 -0.1,0.3 -0.2,0.5 z"
       id="path3916"
       style="fill:#2a2a2a;display:inline" /><path
       d="m 504,492.3 c -0.7,-11.3 19.5,-38.7 8.1,-64 -11.4,-25.3 -55.3,-54.5 -55.3,-54.5 l -14.2,16.8 c 0,0 26.1,17.3 37.5,42.7 11.4,25.4 -8.8,52.7 -8.1,64 0.7,11.3 13.3,34.7 34,40.7 6.6,1.9 18,-0.1 30.6,-5.4 C 516.8,526 504.7,503.4 504,492.3 z"
       id="path3918"
       style="fill:#222222;display:inline" /><path
       d="m 477.5,238.4 -3.3,35 c 0,0 77,153.4 67.4,182.5 -7,21.1 -44.9,23.8 -57.3,37.7 -10.4,11.6 12.8,35.6 19,36.8 24,4.7 92.3,-49.5 94.3,-69.5 C 599.7,441 477.5,238.4 477.5,238.4 z"
       id="path3920"
       style="fill:#3a3a3a;display:inline" /></g><g
     id="Layer_8"
     style="display:none"><path
       d="m 405.7,68.3 c -15.9,-8 -33.6,-9 -51.8,-9 -22.2,0 -47.2,3 -64.8,16.3 -27.5,20.8 -44.3,57.4 -48.8,90.9 1.9,14.9 6.5,28.3 16.8,40.1 10.8,12.4 42.8,18.8 42.8,20.8 0,14.1 21.4,25.5 47.9,25.5 26.4,0 47.9,-11.4 47.9,-25.5 0,-1.9 42.5,-3 55.5,-14.8 12.8,-11.7 18.5,-34.1 20.7,-55.7 -6.1,-36 -32,-71.4 -66.2,-88.6 z"
       id="path3923"
       style="fill:#ffffff;display:inline" /><path
       d="m 315.5,143 c -10.5,1 -15.5,13.5 -25,32.5 -9.5,19 6.5,26 12.5,23 6,-3 19.8,-30.5 25,-36 1.3,-3.2 -2,-20.5 -12.5,-19.5 z"
       id="path3925"
       style="fill:#333333;display:inline" /><path
       d="m 384.3,141 c 10.5,1 15.5,13.5 25,32.5 9.5,19 -6.5,26 -12.5,23 -6,-3 -19.8,-30.5 -25,-36 -1.2,-3.2 2,-20.5 12.5,-19.5 z"
       id="path3927"
       style="fill:#333333;display:inline" /><path
       d="m 323.5,216.8 c 0,-8 13.5,-9.3 22.8,-9.3 13,0 25.3,4 25.3,9.3 0,5.3 -20,17.5 -24,17.5 -4.1,0 -24.1,-9.5 -24.1,-17.5 z"
       id="path3929"
       style="fill:#222222;display:inline" /><path
       d="m 348,242.3 c 0,0 -19,7.9 -43.2,-3.3 0,2.5 21.2,13.8 43.2,13.8 22,0 43.2,-11.3 43.2,-13.8 -24.2,11.3 -43.2,3.3 -43.2,3.3 z"
       id="path3931"
       style="fill:#333333;display:inline" /><path
       d="m 285.7,80.3 c -13,-7 -24.8,-30.2 -36.7,-18.3 -11.8,11.8 -23.1,54.5 -19.3,58.3 3.8,3.8 17,20.6 17,20.6 0,0 41,-53.2 39,-60.6 z"
       id="path3933"
       style="fill:#2a2a2a;display:inline" /><path
       d="m 407,73 c 0,0 12.4,-23.5 23.7,-29.7 42.3,5 34.7,58.3 35.3,66 -3.3,3.3 -13.7,6.3 -13.7,6.3 L 407,73 z"
       id="path3935"
       style="fill:#2a2a2a;display:inline" /><path
       d="m 347.5,223.3 c 2.8,0 13.7,-6.1 19.8,-11.6 -4.7,-2.6 -12.7,-4.2 -21,-4.2 -6.6,0 -15.5,0.6 -19.9,4 5.6,6.2 18,11.8 21.1,11.8 z"
       id="path3937"
       style="fill:#333333;display:inline" /><path
       d="m 277.6,97.4 c 5.1,-8.1 8.6,-14.8 8,-17.1 -13,-7 -24.8,-30.2 -36.7,-18.3 -11.8,11.8 -23.1,54.5 -19.3,58.3 1.1,1.1 3,3.3 5.1,5.9 3.7,-14 10.3,-31.3 17.2,-38.2 8.5,-8.4 16.9,0.9 25.7,9.4 z"
       id="path3939"
       style="fill:#333333;display:inline" /><path
       d="M 430.7,43.3 C 419.4,49.5 407,73 407,73 l 4.3,4.1 c 3.6,-4.5 7.5,-8.6 11.4,-10.7 28.6,3.4 34.4,28.9 35.3,47.4 3,-1.2 6.4,-2.7 8,-4.4 -0.7,-7.7 7,-61.1 -35.3,-66.1 z"
       id="path3941"
       style="fill:#333333;display:inline" /></g><g
     id="Layer_9"
     style="display:none"><path
       d="m 275,371.3 c 0,0 0.7,-62.8 42.3,-81.6 -3.4,59.9 -42.3,81.6 -42.3,81.6 z"
       id="path3944"
       style="fill:#689f38;display:inline" /><path
       d="m 552.3,424 -4.7,5.3 c 0,0 -95.3,-149.7 -233.3,-135 -2,-1.9 -2.9,-3.3 -2.7,-4.2 C 452.3,264.7 552.3,424 552.3,424 z"
       id="path3946"
       style="fill:#689f38;display:inline" /><path
       d="m 184.3,266 c 0,0 91.3,-12.7 131.3,25.3 C 227.7,300.7 184.3,266 184.3,266 z"
       id="path3948"
       style="fill:#689f38;display:inline" /><path
       d="m 267.6,218.8 c 0,0 49.6,33.4 47.2,73.3 -46.2,-33.9 -47.2,-73.3 -47.2,-73.3 z"
       id="path3950"
       style="fill:#689f38;display:inline" /><path
       d="m 311.7,290.2 c -62,21.8 -81.7,77.4 -81.7,77.4 0,0 -0.2,-2.4 5,2.7 28.3,-50.7 79.4,-78 79.4,-78 0,0 6.8,-2.1 -2.7,-2.1 z"
       id="path3952"
       style="fill:#689f38;display:inline" /><g
       id="g3954"
       style="display:inline"><path
         d="m 254.8,430.3 c 0,0 -34.3,-35.8 -21.3,-69.4 31.2,35.7 21.3,69.4 21.3,69.4 z"
         id="path3956"
         style="fill:#689f38" /></g><path
       d="m 159.4,416.3 c 0,0 32.1,-54 77.5,-49.4 -33,50.1 -77.5,49.4 -77.5,49.4 z"
       id="path3958"
       style="fill:#689f38;display:inline" /><g
       id="g3960"
       style="display:inline"><path
         d="m 171.2,353.2 c 0,0 45,-11 66,15.3 -43.5,8.5 -66,-15.3 -66,-15.3 z"
         id="path3962"
         style="fill:#689f38" /></g><path
       d="m 271.2,227.7 c 3.1,13.1 12.5,37 40.3,59.3 -3.5,-26.9 -28.3,-49.7 -40.3,-59.3 z"
       id="path3964"
       style="fill:#8bc34a;display:inline" /><path
       d="m 305.3,287.9 c -33.2,-25 -86,-24.1 -110.2,-22 17.9,10.8 54.6,26.6 110.2,22 z"
       id="path3966"
       style="fill:#8bc34a;display:inline" /><path
       d="m 315.3,292.9 c -27.9,19.7 -36.6,54.4 -39.3,73.4 14.3,-12.2 33.9,-35.4 39.3,-73.4 z"
       id="path3968"
       style="fill:#8bc34a;display:inline" /><path
       d="m 233.6,366.6 c -16.3,-15.6 -42.4,-14.4 -55,-12.6 7.8,5.8 26.3,16.2 55,12.6 z"
       id="path3970"
       style="fill:#8bc34a;display:inline" /><path
       d="m 233.7,365.9 c -29.2,3.1 -51.6,28.8 -61.2,41.8 14.5,-3.1 39.7,-12.6 61.2,-41.8 z"
       id="path3972"
       style="fill:#8bc34a;display:inline" /><path
       d="m 302,383.6 c 0,0 0.1,-0.2 0.2,-0.5 -0.2,0.2 -0.2,0.5 -0.2,0.5 z"
       id="path3974"
       style="fill:#689f38;display:inline" /><path
       d="m 305,386.6 c 0,0 0.1,-0.2 0.2,-0.5 -0.2,0.2 -0.2,0.5 -0.2,0.5 z"
       id="path3976"
       style="fill:#689f38;display:inline" /><path
       d="m 311.1,289.9 c -51.7,20.7 -77.9,66.2 -81.5,75.1 0.4,0.4 4.4,2.9 4.9,3.4 11.1,-36.3 48.6,-64.2 77.6,-76.7 0.1,-1.2 -0.3,-2.2 -1,-1.8 z"
       id="path3978"
       style="fill:#8bc34a;display:inline" /><path
       d="m 233.4,366 c -4.5,22.4 9.4,44.6 17.6,55.5 1,-11.1 -0.2,-32.5 -17.6,-55.5 z"
       id="path3980"
       style="fill:#8bc34a;display:inline" /><path
       d="m 235.1,373.2 c -3,14.6 6.1,29.1 11.5,36.2 0.7,-7.2 -0.1,-21.1 -11.5,-36.2 z"
       id="path3982"
       style="fill:#a9d86c;display:inline" /><path
       d="m 225.4,370.2 c -17.1,1.8 -30.3,16.9 -35.9,24.5 8.5,-1.8 23.3,-7.4 35.9,-24.5 z"
       id="path3984"
       style="fill:#a9d86c;display:inline" /><path
       d="m 227.8,364.6 c -8.8,-8.4 -22.9,-7.7 -29.7,-6.8 4.2,3.1 14.2,8.8 29.7,6.8 z"
       id="path3986"
       style="fill:#a9d86c;display:inline" /><path
       d="m 309.5,302 c -11.5,9.3 -15.1,25.6 -16.2,34.5 5.9,-5.7 14,-16.6 16.2,-34.5 z"
       id="path3988"
       style="fill:#a9d86c;display:inline" /><path
       d="m 292.3,283.5 c -18.3,-11.8 -47.2,-11.3 -60.6,-10.3 9.9,5.1 30,12.5 60.6,10.3 z"
       id="path3990"
       style="fill:#a9d86c;display:inline" /><path
       d="m 548.8,428.7 2.1,-2.3 C 542.3,413.1 446.4,270.6 311.1,289.9 c 0.3,0.3 0.7,1.5 1,1.8 141.2,-13.1 236.7,137 236.7,137 z"
       id="path3992"
       style="fill:#8bc34a;display:inline" /><path
       d="m 281.6,243.5 c 1.9,8 7.7,22.8 24.8,36.5 -2.1,-16.6 -17.3,-30.6 -24.8,-36.5 z"
       id="path3994"
       style="fill:#a9d86c;display:inline" /></g><g
     id="Layer_7"><path
       d="m 472.3,0.2 h -225 C 110.6,0.2 -0.2,111.1 -0.2,247.7 v 225 c 0,136.7 110.8,247.5 247.5,247.5 h 225 c 136.7,0 247.5,-110.8 247.5,-247.5 v -225 C 719.8,111.1 609,0.2 472.3,0.2 z"
       id="path3997"
       style="fill:#0288d1" /><path
       d="m 215.1,383.4 c 0,0 -185.3,225.4 138.4,216.9 C 603.2,593.8 552.7,488.1 549.9,464.7 533.1,427.3 476,383.3 476,383.3 c 0,0 -41.3,-28 -123,-29 -45.4,-6.4 -75.6,9.3 -137.9,29.1 z"
       id="path3999"
       style="fill:#eeeeee" /><path
       d="M 351.6,531.1 C 487.1,527.5 534.2,494.8 548.5,461.8 530.2,425.1 476,383.3 476,383.3 c 0,0 -41.3,-28 -123,-29 -45.3,-6.5 -75.5,9.2 -137.9,29 0,0 -33.9,41.2 -47.4,87.8 17.2,36 67.8,63.1 183.9,60 z"
       id="path4001"
       style="fill:#ffffff" /><g
       id="g4003"><path
         d="m 159.3,500.9 c 0,-6.2 25.9,-45.2 91.3,0 65.4,45.2 57,69.6 57,69.6 0,0 -19.6,25.1 17.8,47.6 9.4,31.8 -12.8,56.7 -38.3,59.8 -67.9,8.3 -144.7,-103.5 -127.8,-177 z"
         id="path4005"
         style="fill:#222222" /><path
         d="m 324.9,648.1 c -24.6,2.8 -50.4,-10.1 -72.4,-31.3 -15.6,-30.8 -23.1,-65 -16.6,-93.4 0,-3 6.1,-13.7 19.8,-18.8 -1.7,-1.2 -3.4,-2.4 -5.1,-3.6 -24,-16.6 -42.7,-21.8 -56.8,-21.5 0,0 -0.1,0 -0.1,0 -2.3,0.1 -4.5,0.3 -6.5,0.6 0,0 0,0 -0.1,0 -6.9,1.1 -12.4,3.7 -16.7,6.6 0,0 0,0 0,0 -1.3,0.9 -2.4,1.8 -3.4,2.7 0,0 0,0 0,0 -0.3,0.3 -0.7,0.6 -1,0.9 l 0,0 c -0.6,0.6 -1.2,1.2 -1.8,1.9 0,0 0,0 -0.1,0.1 -0.2,0.3 -0.5,0.6 -0.7,0.8 0,0 0,0.1 -0.1,0.1 -0.5,0.6 -0.9,1.2 -1.3,1.7 0,0 0,0.1 -0.1,0.1 -0.2,0.2 -0.3,0.5 -0.5,0.7 0,0.1 -0.1,0.1 -0.1,0.2 -0.2,0.2 -0.3,0.5 -0.4,0.7 0,0 0,0 0,0.1 -0.1,0.3 -0.3,0.5 -0.4,0.7 0,0 0,0.1 -0.1,0.1 -0.1,0.2 -0.2,0.4 -0.3,0.6 0,0.1 -0.1,0.1 -0.1,0.2 -0.1,0.2 -0.1,0.3 -0.2,0.5 0,0 0,0.1 -0.1,0.1 -0.1,0.2 -0.1,0.4 -0.2,0.6 0,0 0,0.1 0,0.1 0,0.2 -0.1,0.3 -0.1,0.4 0,0.1 0,0.1 0,0.1 0,0.1 0,0.2 -0.1,0.3 0,0 0,0.1 0,0.1 0,0.1 0,0.3 0,0.4 -16.9,73.5 60,185.3 127.8,177 0.9,-0.1 1.7,-0.2 2.6,-0.4 0.1,0 0.1,0 0.2,0 15.5,-2.9 29.4,-13.9 35,-29.4 z"
         id="path4007"
         style="fill:#2a2a2a" /><path
         d="m 186.4,485.9 c 0,-1.2 0.9,-3.5 2.9,-6.3 -20.9,2.4 -30,17.5 -30,21.2 -16.9,73.5 60,185.3 127.8,177 11.1,-1.4 21.6,-6.9 29.1,-15.3 -0.7,0.1 -1.3,0.2 -2,0.3 -67.9,8.4 -144.7,-103.4 -127.8,-176.9 z"
         id="path4009"
         style="fill:#333333" /></g><path
       d="m 500.2,462.9 c -16.8,90.7 -47.7,94.4 -50.9,138.6 101.4,139.1 194.9,-133 50.9,-138.6 z"
       id="path4011"
       style="fill:#3a3a3a" /><path
       d="m 506.5,463.3 c -2,-0.2 -4.1,-0.3 -6.2,-0.4 -16.8,90.7 -47.7,94.4 -50.9,138.6 4.2,5.7 8.3,10.7 12.5,15.1 52.9,-3.9 84.8,-105.2 44.6,-153.3 z"
       id="path4013"
       style="fill:#2a2a2a" /><path
       d="m 463.3,251 c 0,-0.2 0,-0.4 0,-0.7 0,0.1 -0.1,0.3 -0.1,0.4 -4,-4.8 -9.9,-6.6 -9.9,-6.6 L 264,249.7 c 0,0 -11.4,15.4 -18.1,19.9 -6.7,4.6 0,128.4 0,128.4 0,0 112.3,-38 188.3,0 C 501,350.7 465,253.1 463.3,251 z"
       id="path4015"
       style="fill:#222222" /><path
       d="m 461.5,251 c 0,0 0,-0.4 0,-0.7 0,0.1 -0.1,0.3 -0.1,0.4 -4.1,-4.7 0.1,0.3 0.1,0.3 0,0 -0.5,132.1 -31.7,143.3 5.3,5.3 24.4,16.2 35,39.9 10.6,23.7 -8.2,49.2 -7.6,59.8 0.6,10.6 12.5,32.4 31.8,38 19.3,5.6 82.9,-24.9 86.6,-72.9 C 562.7,414.8 461.5,251 461.5,251 z"
       id="path4017"
       style="fill:#2a2a2a" /><path
       d="m 244,269.6 c 0,0 -16.2,5 -20.6,38 -4.4,33 -28.7,64.2 -36.2,95.4 -7.5,31.2 131.5,63 142.8,43.6 11.2,-19.3 23.1,-62.3 23.4,-71.1 0.3,-8.7 26.5,-19.3 33.4,-26.8 6.9,-7.5 19.3,-44.9 16.8,-51.7 -2.5,-6.8 -70.4,5 -84.2,13.7 -13.7,8.7 -53,69.2 -53,69.2 0,0 15.6,-30.8 12.5,-58.1 C 275.8,294.5 244,269.6 244,269.6 z"
       id="path4019"
       style="fill:#2a2a2a" /><path
       d="m 257.1,382.5 c -32.7,-8.7 -4.2,-103.5 -4,-104.7 -9.3,-11.7 -9.1,-8.2 -9.1,-8.2 0,0 -16.2,5 -20.6,38 -4.4,33 -28.7,64.2 -36.2,95.4 -7.5,31.2 131.5,63 142.8,43.6 1.6,-2.8 21.3,-63.5 22.9,-67.1 -44.1,-3.9 -73.6,8.8 -95.8,3 z"
       id="path4021"
       style="fill:#3a3a3a" /><path
       d="m 459.1,189.2 c 0,25 -3.6,60.6 -20.6,76.1 -19.6,17.9 -59.5,5.6 -91.2,5.6 -34,0 -70.7,11.4 -90.2,-11.2 -14.4,-16.6 -16.8,-36.4 -16.8,-59.2 0,-34.9 16.4,-78.7 46.8,-101.6 16.5,-12.4 39.9,-15.3 60.6,-15.3 17,0 33.6,1 48.5,8.4 36.5,18.3 62.9,58.9 62.9,97.2 z"
       id="path4023"
       style="fill:#eeeeee" /><path
       d="m 583.8,85.3 c -4,-4.8 0.2,0.2 0.2,0.2 0,0 0,-0.4 0,-0.7 -0.1,0.2 -0.2,0.3 -0.2,0.5 z"
       id="path4025"
       style="fill:#2a2a2a" /><path
       d="m 553.9,90 c -4,-4.8 0.2,0.2 0.2,0.2 0,0 0,-0.4 0,-0.7 -0.1,0.2 -0.2,0.3 -0.2,0.5 z"
       id="path4027"
       style="fill:#2a2a2a" /><path
       d="m 488.1,488.4 c -0.6,-10.6 18.2,-36.2 7.6,-59.8 -10.6,-23.6 -51.7,-51 -51.7,-51 l -13.3,15.8 c 0,0 24.4,16.2 35,39.9 10.6,23.7 -8.2,49.2 -7.6,59.8 0.6,10.6 12.5,32.4 31.8,38 6.2,1.8 16.9,-0.1 28.7,-5.1 -18.6,-6.1 -29.9,-27.2 -30.5,-37.6 z"
       id="path4029"
       style="fill:#222222" /><path
       d="m 463.3,251 -3,32.7 c 0,0 72,143.4 63,170.7 -6.5,19.8 -42,22.3 -53.6,35.3 -9.7,10.8 12,33.3 17.8,34.5 22.4,4.4 86.3,-46.3 88.2,-65 C 577.5,440.4 463.3,251 463.3,251 z"
       id="path4031"
       style="fill:#3a3a3a" /><path
       d="m 396.1,92 c -14.8,-7.4 -31.4,-8.4 -48.5,-8.4 -20.7,0 -44.1,2.8 -60.6,15.3 -25.7,19.4 -41.4,53.7 -45.6,85 1.8,13.9 6.1,26.4 15.7,37.5 10.1,11.6 40,17.6 40,19.5 0,13.2 20,23.8 44.8,23.8 24.7,0 44.8,-10.7 44.8,-23.8 0,-1.8 39.7,-2.8 51.9,-13.9 12,-10.9 17.3,-31.9 19.4,-52 -5.6,-33.8 -29.9,-67 -61.9,-83 z"
       id="path4033"
       style="fill:#ffffff" /><path
       d="m 311.8,161.8 c -9.8,0.9 -14.5,12.6 -23.4,30.4 -8.9,17.8 6.1,24.3 11.7,21.5 5.6,-2.8 18.5,-28.5 23.4,-33.7 1.2,-3 -1.8,-19.2 -11.7,-18.2 z"
       id="path4035"
       style="fill:#333333" /><path
       d="m 376.2,159.9 c 9.8,0.9 14.5,12.6 23.4,30.4 8.9,17.8 -6.1,24.3 -11.7,21.5 -5.6,-2.8 -18.5,-28.5 -23.4,-33.7 -1.2,-3 1.9,-19.1 11.7,-18.2 z"
       id="path4037"
       style="fill:#333333" /><path
       d="m 319.3,230.7 c 0,-7.5 12.6,-8.6 21.3,-8.6 12.2,0 23.7,3.7 23.7,8.6 0,4.9 -18.7,16.4 -22.5,16.4 -3.8,0 -22.5,-8.9 -22.5,-16.4 z"
       id="path4039"
       style="fill:#222222" /><path
       d="m 342.2,254.7 c 0,0 -17.8,7.4 -40.4,-3.1 0,2.3 19.8,12.9 40.4,12.9 20.6,0 40.4,-10.5 40.4,-12.9 -22.6,10.5 -40.4,3.1 -40.4,3.1 z"
       id="path4041"
       style="fill:#333333" /><path
       d="M 283.9,103.2 C 271.8,96.6 260.7,75 249.7,86 c -11.1,11.1 -21.6,51 -18.1,54.5 3.5,3.5 15.9,19.3 15.9,19.3 0,0 38.3,-49.8 36.4,-56.6 z"
       id="path4043"
       style="fill:#2a2a2a" /><path
       d="m 397.4,96.3 c 0,0 11.6,-22 22.1,-27.7 39.6,4.7 32.4,54.5 33,61.7 -3,3 -12.8,5.9 -12.8,5.9 L 397.4,96.3 z"
       id="path4045"
       style="fill:#2a2a2a" /><path
       d="m 341.8,236.8 c 2.7,0 12.8,-5.7 18.5,-10.8 -4.4,-2.4 -11.9,-3.9 -19.7,-3.9 -6.2,0 -14.5,0.6 -18.6,3.7 5.2,5.8 16.9,11 19.8,11 z"
       id="path4047"
       style="fill:#333333" /><path
       d="m 276.4,119.2 c 4.8,-7.6 8.1,-13.9 7.5,-16 C 271.8,96.6 260.7,75 249.7,86 c -11.1,11.1 -21.6,51 -18.1,54.5 1,1 2.8,3.1 4.8,5.5 3.4,-13.1 9.7,-29.3 16.1,-35.7 7.8,-7.8 15.7,0.9 23.9,8.9 z"
       id="path4049"
       style="fill:#333333" /><path
       d="M 419.5,68.6 C 409,74.4 397.4,96.3 397.4,96.3 l 4,3.8 c 3.3,-4.2 7,-8.1 10.6,-10 26.8,3.2 32.2,27 33,44.3 2.8,-1.1 6,-2.6 7.5,-4.1 -0.6,-7.2 6.6,-57 -33,-61.7 z"
       id="path4051"
       style="fill:#333333" /><path
       d="m 229.1,372.5 c 0,0 0.7,-58.7 39.6,-76.3 -3.2,56 -39.6,76.3 -39.6,76.3 z"
       id="path4053"
       style="fill:#689f38" /><path
       d="m 488.4,421.7 -4.4,5 c 0,0 -89.1,-139.9 -218.2,-126.3 -1.8,-1.8 -2.7,-3.1 -2.5,-4 131.6,-23.7 225.1,125.3 225.1,125.3 z"
       id="path4055"
       style="fill:#689f38" /><path
       d="m 144.3,274 c 0,0 85.4,-11.8 122.8,23.7 C 184.8,306.4 144.3,274 144.3,274 z"
       id="path4057"
       style="fill:#689f38" /><path
       d="m 222.1,229.8 c 0,0 46.4,31.2 44.1,68.5 -43.1,-31.6 -44.1,-68.5 -44.1,-68.5 z"
       id="path4059"
       style="fill:#689f38" /><path
       d="m 225.5,238.2 c 2.9,12.2 11.7,34.6 37.7,55.4 -3.3,-25.1 -26.4,-46.4 -37.7,-55.4 z"
       id="path4061"
       style="fill:#8bc34a" /><path
       d="M 257.4,294.5 C 226.3,271.1 177,272 154.3,273.9 c 16.8,10.1 51.1,24.9 103.1,20.6 z"
       id="path4063"
       style="fill:#8bc34a" /><path
       d="m 266.8,299.2 c -26.1,18.4 -34.2,50.8 -36.8,68.6 13.4,-11.5 31.7,-33.2 36.8,-68.6 z"
       id="path4065"
       style="fill:#8bc34a" /><path
       d="m 254.3,383.9 c 0,0 0.1,-0.2 0.2,-0.4 -0.2,0.1 -0.2,0.4 -0.2,0.4 z"
       id="path4067"
       style="fill:#689f38" /><path
       d="m 257.1,386.7 c 0,0 0.1,-0.2 0.2,-0.4 -0.2,0.1 -0.2,0.4 -0.2,0.4 z"
       id="path4069"
       style="fill:#689f38" /><path
       d="m 261.3,307.6 c -10.8,8.7 -14.1,23.9 -15.2,32.3 5.6,-5.3 13.1,-15.5 15.2,-32.3 z"
       id="path4071"
       style="fill:#a9d86c" /><path
       d="m 245.2,290.4 c -17.1,-11 -44.2,-10.6 -56.6,-9.7 9.2,4.8 28.1,11.7 56.6,9.7 z"
       id="path4073"
       style="fill:#a9d86c" /><path
       d="m 235.3,252.9 c 1.8,7.5 7.2,21.3 23.2,34.1 -2,-15.4 -16.3,-28.5 -23.2,-34.1 z"
       id="path4075"
       style="fill:#a9d86c" /><path
       d="m 485.1,426.1 2,-2.2 C 479,411.4 389.4,278.2 262.9,296.3 c 0.2,0.3 0.7,1.4 1,1.7 131.9,-12.2 221.2,128.1 221.2,128.1 z"
       id="path4077"
       style="fill:#8bc34a" /><path
       d="m 232.3,437.8 c 39.4,13.8 91.1,20.3 97.8,8.8 11.2,-19.3 23.1,-62.3 23.4,-71.1 0.3,-8.7 26.5,-19.3 33.4,-26.8 6.9,-7.5 19.3,-44.9 16.8,-51.7 -2.5,-6.8 -70.4,5 -84.2,13.7 -13.7,8.8 -69.4,94.7 -87.2,127.1 z"
       id="path4079"
       style="fill:#3a3a3a" /><path
       d="m 403.6,297.1 c -0.9,-2.6 -11.1,-2.5 -24.2,-1 -2.7,6.5 -5.4,12 -7.6,14.4 -6.9,7.5 -33,18.1 -33.4,26.8 -0.3,8.7 -12.2,51.7 -23.4,71.1 -8.3,14.2 -85.9,0.7 -123.2,-19.8 -1.8,4.9 -3.4,9.7 -4.6,14.5 -7.5,31.2 131.5,63 142.8,43.6 11.2,-19.3 23.1,-62.3 23.4,-71.1 0.3,-8.7 26.5,-19.3 33.4,-26.8 6.9,-7.5 19.3,-44.9 16.8,-51.7 z"
       id="path4081"
       style="fill:#333333" /><g
       id="g4083"><path
         d="m 210.2,427.6 c 0,0 -32.1,-33.5 -19.9,-64.9 29.2,33.4 19.9,64.9 19.9,64.9 z"
         id="path4085"
         style="fill:#689f38" /></g><path
       d="m 190.2,367.5 c -4.2,20.9 8.7,41.7 16.5,51.9 0.9,-10.4 -0.2,-30.4 -16.5,-51.9 z"
       id="path4087"
       style="fill:#8bc34a" /><path
       d="m 191.8,374.3 c -2.8,13.7 5.7,27.3 10.8,33.9 0.5,-6.8 -0.2,-19.9 -10.8,-33.9 z"
       id="path4089"
       style="fill:#a9d86c" /><g
       id="g4091"><path
         d="m 132,355.6 c 0,0 42.1,-10.3 61.7,14.3 -40.6,7.9 -61.7,-14.3 -61.7,-14.3 z"
         id="path4093"
         style="fill:#689f38" /></g><path
       d="m 190.3,368 c -15.2,-14.5 -39.6,-13.4 -51.5,-11.8 7.4,5.5 24.8,15.3 51.5,11.8 z"
       id="path4095"
       style="fill:#8bc34a" /><path
       d="m 184.9,366.2 c -8.2,-7.8 -21.4,-7.2 -27.8,-6.4 4,3 13.4,8.2 27.8,6.4 z"
       id="path4097"
       style="fill:#a9d86c" /><path
       d="M 263.4,296.6 C 205.4,317 187,369 187,369 c 0,0 -0.2,-2.3 4.7,2.6 26.5,-47.4 74.2,-73 74.2,-73 0,0 6.3,-2 -2.5,-2 z"
       id="path4099"
       style="fill:#689f38" /><path
       d="m 262.9,296.3 c -48.3,19.3 -72.8,61.9 -76.2,70.2 0.4,0.4 4.1,2.7 4.6,3.2 10.3,-33.9 45.5,-60.1 72.6,-71.7 -0.1,-1.1 -0.4,-2.1 -1,-1.7 z"
       id="path4101"
       style="fill:#8bc34a" /><path
       d="m 120.9,414.5 c 0,0 30,-50.5 72.5,-46.2 -30.8,46.9 -72.5,46.2 -72.5,46.2 z"
       id="path4103"
       style="fill:#689f38" /><path
       d="m 190.4,367.4 c -27.3,2.9 -48.3,26.9 -57.2,39.1 13.6,-2.9 37.1,-11.8 57.2,-39.1 z"
       id="path4105"
       style="fill:#8bc34a" /><path
       d="m 182.7,371.5 c -16,1.7 -28.3,15.8 -33.6,22.9 8,-1.7 21.8,-7 33.6,-22.9 z"
       id="path4107"
       style="fill:#a9d86c" /></g></svg>